<svg width="104" height="104" viewBox="0 0 104 104" fill="none" xmlns="http://www.w3.org/2000/svg">
<rect width="104" height="104" rx="52" fill="#E1E1E8"/>
<path d="M59.161 29.5608C58.2214 28.9344 57.1174 28.6001 55.9881 28.6001H48.0119C46.8826 28.6001 45.7786 28.9344 44.839 29.5608L37.7 34.3201H29.12C27.603 34.3201 26.1481 34.9227 25.0753 35.9954C24.0026 37.0682 23.4 38.5231 23.4 40.0401V71.5001C23.4 73.0171 24.0026 74.472 25.0753 75.5448C26.1481 76.6175 27.603 77.2201 29.12 77.2201H74.88C76.397 77.2201 77.8519 76.6175 78.9246 75.5448C79.9974 74.472 80.6 73.0171 80.6 71.5001V40.0401C80.6 38.5231 79.9974 37.0682 78.9246 35.9954C77.8519 34.9227 76.397 34.3201 74.88 34.3201H66.3L59.161 29.5608Z" stroke="#232426" stroke-width="5.72" stroke-linecap="round" stroke-linejoin="round"/>
<path d="M52 62.9201C56.7386 62.9201 60.58 59.0787 60.58 54.3401C60.58 49.6015 56.7386 45.7601 52 45.7601C47.2614 45.7601 43.42 49.6015 43.42 54.3401C43.42 59.0787 47.2614 62.9201 52 62.9201Z" stroke="#232426" stroke-width="5.72" stroke-linecap="round" stroke-linejoin="round"/>
</svg>
