<svg width="181" height="132" viewBox="0 0 181 132" fill="none" xmlns="http://www.w3.org/2000/svg">
<g filter="url(#filter0_b_157_394)">
<path d="M17.3531 104.818V131H11.025V104.818H17.3531ZM45.0914 114.304H38.6993C38.6141 113.648 38.4394 113.055 38.1752 112.527C37.911 111.999 37.5615 111.547 37.1269 111.172C36.6922 110.797 36.1766 110.511 35.58 110.315C34.9919 110.111 34.34 110.009 33.624 110.009C32.3542 110.009 31.259 110.32 30.3385 110.942C29.4266 111.564 28.7235 112.463 28.2292 113.639C27.7434 114.815 27.5005 116.239 27.5005 117.909C27.5005 119.648 27.7476 121.105 28.2419 122.281C28.7448 123.449 29.4479 124.331 30.3513 124.928C31.2632 125.516 32.3414 125.81 33.5857 125.81C34.2846 125.81 34.9195 125.72 35.4905 125.541C36.0701 125.362 36.5772 125.102 37.0118 124.761C37.455 124.412 37.8172 123.99 38.0985 123.496C38.3882 122.993 38.5885 122.426 38.6993 121.795L45.0914 121.834C44.9806 122.993 44.6439 124.135 44.0814 125.26C43.5275 126.385 42.7647 127.412 41.7931 128.341C40.8215 129.261 39.6368 129.994 38.2391 130.54C36.8499 131.085 35.2561 131.358 33.4579 131.358C31.0885 131.358 28.9664 130.838 27.0914 129.798C25.2249 128.75 23.7505 127.224 22.6681 125.222C21.5857 123.219 21.0445 120.781 21.0445 117.909C21.0445 115.028 21.5942 112.587 22.6936 110.584C23.7931 108.581 25.2803 107.06 27.1553 106.02C29.0303 104.98 31.1311 104.46 33.4579 104.46C35.0431 104.46 36.509 104.682 37.8556 105.125C39.2022 105.56 40.3868 106.199 41.4096 107.043C42.4323 107.878 43.2633 108.905 43.9025 110.124C44.5417 111.342 44.938 112.736 45.0914 114.304ZM48.7125 131V104.818H66.9681V109.957H55.0406V115.327H66.0349V120.479H55.0406V125.861H66.9681V131H48.7125ZM70.0747 109.957V104.818H92.2039V109.957H84.265V131H78.0264V109.957H70.0747Z" fill="url(#paint0_linear_157_394)"/>
<path d="M95.2945 131V104.818H113.167V109.957H101.623V115.327H112.029V120.479H101.623V131H95.2945ZM116.353 131V104.818H122.681V125.861H133.573V131H116.353ZM143.177 104.818V131H136.849V104.818H143.177ZM153.555 104.818L158.336 113.089H158.541L163.373 104.818H170.455L162.555 117.909L170.711 131H163.45L158.541 122.639H158.336L153.427 131H146.217L154.335 117.909L146.421 104.818H153.555Z" fill="url(#paint1_linear_157_394)"/>
</g>
<path d="M101.502 0.00142825C98.4229 0.00237526 95.4705 1.29522 93.2934 3.59576C91.1163 5.8963 89.8929 9.01625 89.892 12.2697V17.8429H84.6179C83.0922 17.8416 81.5811 18.1582 80.1713 18.7746C78.7615 19.391 77.4805 20.2951 76.4017 21.4352C75.3229 22.5752 74.4674 23.929 73.8841 25.4187C73.3009 26.9086 73.0014 28.5053 73.0027 30.1176V42.3816H89.8893V53.528H84.6152C81.5355 53.5276 78.5817 54.8199 76.4035 57.1205C74.2253 59.4212 73.0011 62.5417 73 65.7961V86.9914H84.6206C86.1449 86.9908 87.6541 86.6729 89.062 86.0553C90.47 85.4384 91.749 84.5341 92.8263 83.3946C93.9035 82.255 94.7577 80.9023 95.3402 79.4135C95.9226 77.9248 96.2219 76.3301 96.2209 74.7194H96.2358V66.622L96.2047 66.6263V15.0384L96.2304 15.0449V12.2718C96.233 10.7932 96.7891 9.3757 97.7772 8.32873C98.7653 7.28177 100.105 6.69038 101.504 6.68358H121.674V12.2718C121.67 13.7498 121.112 15.1658 120.122 16.2102C119.132 17.2546 117.792 17.8424 116.393 17.8451H98.6173V24.5344H116.39C119.469 24.5346 122.422 23.2424 124.599 20.942C126.776 18.6417 128 15.5217 128 12.2683V0L101.502 0.00142825ZM89.892 35.6915H79.3397V30.1183C79.3421 28.6379 79.8988 27.2187 80.8883 26.1708C81.8778 25.1229 83.2197 24.5314 84.6206 24.5258H89.8947L89.892 35.6915ZM89.892 74.7255C89.8897 76.2032 89.3334 77.6203 88.345 78.6655C87.3566 79.7113 86.0164 80.3007 84.6179 80.3043H79.337V65.7998C79.3383 64.3208 79.8953 62.9032 80.8856 61.858C81.8759 60.8128 83.2183 60.2261 84.6179 60.2266H89.892V74.7255ZM98.6173 42.3808H111.938V47.9598C111.933 49.4375 111.374 50.853 110.385 51.8972C109.395 52.9414 108.055 53.5295 106.657 53.533H98.6173V60.2266H106.66C108.184 60.2275 109.694 59.9107 111.103 59.2945C112.512 58.6782 113.792 57.7746 114.871 56.6352C115.949 55.4958 116.804 54.143 117.387 52.6542C117.97 51.1654 118.27 49.5697 118.269 47.9584H118.275V35.6901H98.6173V42.3808Z" fill="url(#paint2_linear_157_394)"/>
<defs>
<filter id="filter0_b_157_394" x="-0.975037" y="92.4602" width="183.686" height="50.8977" filterUnits="userSpaceOnUse" color-interpolation-filters="sRGB">
<feFlood flood-opacity="0" result="BackgroundImageFix"/>
<feGaussianBlur in="BackgroundImageFix" stdDeviation="6"/>
<feComposite in2="SourceAlpha" operator="in" result="effect1_backgroundBlur_157_394"/>
<feBlend mode="normal" in="SourceGraphic" in2="effect1_backgroundBlur_157_394" result="shape"/>
</filter>
<linearGradient id="paint0_linear_157_394" x1="0" y1="113.693" x2="180.79" y2="113.693" gradientUnits="userSpaceOnUse">
<stop offset="0.416667" stop-color="white"/>
<stop offset="1" stop-color="#56AB2F"/>
</linearGradient>
<linearGradient id="paint1_linear_157_394" x1="0" y1="113.693" x2="180.79" y2="113.693" gradientUnits="userSpaceOnUse">
<stop stop-color="#43BD00"/>
<stop offset="1" stop-color="#82C15D"/>
</linearGradient>
<linearGradient id="paint2_linear_157_394" x1="100.5" y1="0" x2="100.5" y2="86.9914" gradientUnits="userSpaceOnUse">
<stop stop-color="#56AB2F"/>
<stop offset="0.9999" stop-color="#A7DF62"/>
<stop offset="1" stop-color="#A8E063" stop-opacity="0"/>
</linearGradient>
</defs>
</svg>
