<svg width="282" height="257" viewBox="0 0 282 257" fill="none" xmlns="http://www.w3.org/2000/svg">
<path d="M251.428 78.3142C246.483 116.572 211.94 154.766 173.95 179.363C75.776 243.445 -19.133 134.706 4.80695 95.6508C22.7765 56.0385 78.8303 66.9188 102.676 51.3463C236.694 -36.797 256.075 46.2942 251.428 78.3142Z" fill="#5FBE3C"/>
<path opacity="0.9" d="M251.428 78.3142C246.483 116.572 211.94 154.766 173.95 179.363C75.776 243.445 -19.133 134.706 4.80695 95.6508C22.7765 56.0385 78.8303 66.9188 102.676 51.3463C236.694 -36.797 256.075 46.2942 251.428 78.3142Z" fill="white" fill-opacity="0.8"/>
<path d="M141 257C218.872 257 282 253.424 282 249.013C282 244.601 218.872 241.025 141 241.025C63.1278 241.025 0 244.601 0 249.013C0 253.424 63.1278 257 141 257Z" fill="#F5F5F5"/>
<path d="M140.971 210.071H37.7062L32.0557 48.9332H135.32L140.971 210.071Z" fill="#5FBE3C"/>
<path d="M146.127 205.068H42.8621L37.2044 43.9306H140.469L146.127 205.068Z" fill="#5FBE3C"/>
<path opacity="0.3" d="M146.127 205.068H42.8621L37.2044 43.9306H140.469L146.127 205.068Z" fill="white"/>
<path d="M111.528 110.238C122.585 99.3253 122.114 81.4805 110.477 70.3809C98.8401 59.2813 80.4432 59.1302 69.3865 70.0433C58.3298 80.9564 58.8002 98.8012 70.4372 109.901C82.0742 121 100.471 121.151 111.528 110.238Z" fill="#5FBE3C"/>
<path d="M114.435 90.1472C114.584 93.9868 113.72 97.7997 111.926 101.225C109.989 104.916 107.031 108.011 103.383 110.162C99.7353 112.314 95.5417 113.436 91.2729 113.404C86.9038 113.381 82.6178 112.243 78.8447 110.106C75.0717 107.968 71.9443 104.906 69.7764 101.225C67.755 97.8523 66.6257 94.0464 66.4894 90.1472C66.3552 87.1237 66.856 84.1054 67.9613 81.2755C69.0665 78.4457 70.7532 75.8634 72.9189 73.6856C75.0845 71.5078 77.6839 69.7799 80.559 68.607C83.4341 67.434 86.5251 66.8405 89.6439 66.8624C96.0691 66.9065 102.23 69.3505 106.846 73.6866C111.463 78.0227 114.181 83.9177 114.435 90.1472Z" fill="white"/>
<path opacity="0.6" d="M111.911 101.225C109.975 104.917 107.017 108.011 103.369 110.163C99.7208 112.314 95.5271 113.436 91.2584 113.404C86.8893 113.381 82.6032 112.244 78.8302 110.106C75.0571 107.969 71.9298 104.906 69.7618 101.225C75.912 97.1568 83.1895 94.9942 90.633 95.023C98.1964 95.0389 105.591 97.1942 111.911 101.225Z" fill="#5FBE3C"/>
<path opacity="0.6" d="M97.9283 89.5671C101.994 85.5542 101.821 78.9925 97.542 74.9111C93.263 70.8297 86.4983 70.7741 82.4326 74.787C78.3669 78.7999 78.5399 85.3616 82.8189 89.443C87.0979 93.5244 93.8627 93.5799 97.9283 89.5671Z" fill="#5FBE3C"/>
<path d="M125.379 146.715H59.5081L59.0645 134.014H124.936L125.379 146.715Z" fill="white"/>
<path d="M126.179 169.414H60.3007L59.8571 156.713H125.736L126.179 169.414Z" fill="white"/>
<path d="M100.756 158.463L84.8807 160.58C84.7292 160.597 84.583 160.644 84.4511 160.718C84.3193 160.792 84.2047 160.892 84.1145 161.011C84.0244 161.131 83.9606 161.267 83.9273 161.411C83.8939 161.555 83.8917 161.705 83.9208 161.85L86.0079 172.173C86.0762 172.476 86.2589 172.743 86.5199 172.922C86.781 173.101 87.1016 173.179 87.4187 173.14L103.294 171.023C103.445 171.004 103.591 170.956 103.722 170.881C103.853 170.805 103.966 170.705 104.056 170.585C104.145 170.465 104.208 170.329 104.241 170.184C104.274 170.04 104.276 169.891 104.246 169.746L102.167 159.423C102.098 159.12 101.915 158.854 101.654 158.676C101.393 158.498 101.072 158.422 100.756 158.463ZM96.1962 168.92L93.2873 169.294L93.0037 165.964C92.704 165.838 92.4398 165.644 92.2335 165.399C92.0272 165.153 91.8848 164.863 91.8184 164.553C91.7649 164.312 91.7641 164.064 91.8158 163.823C91.8676 163.582 91.9709 163.355 92.1189 163.155C92.267 162.956 92.4565 162.789 92.6753 162.665C92.8941 162.541 93.1373 162.463 93.3891 162.436C93.9057 162.371 94.4283 162.497 94.8538 162.788C95.2793 163.08 95.5767 163.515 95.6872 164.009C95.7502 164.307 95.7309 164.617 95.6313 164.905C95.5317 165.194 95.3553 165.452 95.1199 165.653L96.1962 168.92Z" fill="#5FBE3C"/>
<path d="M99.185 157.906C98.9044 157.941 98.6205 157.872 98.3891 157.714C98.1577 157.556 97.9954 157.32 97.9342 157.052L97.7306 156.043C97.44 154.666 96.6445 153.438 95.4918 152.587C94.339 151.736 92.9073 151.319 91.462 151.414C90.7327 151.455 90.0209 151.647 89.3749 151.978C88.7289 152.309 88.1639 152.771 87.7182 153.332C87.2726 153.894 86.9567 154.542 86.7921 155.233C86.6274 155.923 86.6179 156.64 86.7642 157.334L86.9969 158.499C87.024 158.628 87.023 158.761 86.9941 158.889C86.9651 159.018 86.9087 159.139 86.8286 159.246C86.7485 159.352 86.6465 159.441 86.5289 159.507C86.4114 159.572 86.281 159.614 86.146 159.628C85.8649 159.666 85.5793 159.599 85.3471 159.44C85.1148 159.282 84.9534 159.043 84.8952 158.774L84.6989 157.793C84.4992 156.876 84.4926 155.93 84.6794 155.011C84.8663 154.092 85.2427 153.219 85.7861 152.444C86.3295 151.67 87.0287 151.01 87.8416 150.504C88.6546 149.999 89.5645 149.658 90.5166 149.502C92.5811 149.166 94.6999 149.614 96.4331 150.753C98.1663 151.892 99.381 153.635 99.825 155.62L100.058 156.777C100.085 156.908 100.083 157.042 100.053 157.172C100.023 157.302 99.9644 157.425 99.882 157.531C99.7996 157.638 99.6949 157.726 99.5748 157.791C99.4547 157.855 99.3219 157.895 99.185 157.906Z" fill="#5FBE3C"/>
<path d="M115.307 187.202H72.4234L72.1398 178.933H115.017L115.307 187.202Z" fill="#5FBE3C"/>
<path d="M94.6181 140.365C94.6309 140.666 94.5804 140.967 94.4698 141.249C94.3591 141.532 94.1906 141.789 93.9744 142.006C93.7581 142.223 93.4987 142.395 93.2119 142.512C92.925 142.629 92.6167 142.688 92.3055 142.686C91.6643 142.681 91.0495 142.438 90.588 142.006C90.1266 141.574 89.8537 140.986 89.8257 140.365C89.8129 140.063 89.8634 139.762 89.974 139.48C90.0847 139.198 90.2532 138.94 90.4695 138.723C90.6857 138.506 90.9451 138.334 91.232 138.217C91.5188 138.1 91.8272 138.041 92.1383 138.043C92.78 138.046 93.3959 138.289 93.8577 138.722C94.3196 139.154 94.5919 139.742 94.6181 140.365Z" fill="#263238"/>
<path d="M84.2771 140.365C84.2909 140.667 84.2412 140.968 84.1309 141.251C84.0206 141.533 83.8521 141.791 83.6357 142.008C83.4192 142.226 83.1594 142.398 82.8721 142.514C82.5847 142.631 82.2759 142.689 81.9645 142.686C81.324 142.681 80.71 142.437 80.2497 142.005C79.7894 141.573 79.5181 140.986 79.492 140.365C79.4792 140.063 79.5296 139.762 79.6403 139.48C79.7509 139.198 79.9195 138.94 80.1357 138.723C80.3519 138.506 80.6113 138.334 80.8982 138.217C81.1851 138.1 81.4934 138.041 81.8045 138.043C82.4456 138.046 83.0606 138.29 83.5213 138.722C83.9819 139.155 84.2527 139.743 84.2771 140.365Z" fill="#263238"/>
<path d="M74.0015 140.365C74.0143 140.666 73.9638 140.967 73.8532 141.249C73.7425 141.532 73.574 141.789 73.3578 142.006C73.1415 142.223 72.8821 142.395 72.5952 142.512C72.3084 142.629 72.0001 142.688 71.6889 142.686C71.0479 142.683 70.4329 142.44 69.9722 142.007C69.5115 141.575 69.2408 140.986 69.2164 140.365C69.2036 140.063 69.254 139.762 69.3647 139.48C69.4754 139.198 69.6439 138.94 69.8601 138.723C70.0764 138.506 70.3358 138.334 70.6226 138.217C70.9095 138.1 71.2178 138.041 71.5289 138.043C72.17 138.046 72.785 138.29 73.2457 138.722C73.7064 139.155 73.9771 139.743 74.0015 140.365Z" fill="#263238"/>
<path d="M104.923 140.365C104.936 140.666 104.885 140.967 104.774 141.249C104.664 141.532 104.495 141.789 104.279 142.006C104.063 142.223 103.803 142.395 103.517 142.512C103.23 142.629 102.921 142.688 102.61 142.686C101.969 142.683 101.354 142.44 100.893 142.007C100.433 141.575 100.162 140.986 100.138 140.365C100.127 140.064 100.179 139.764 100.291 139.484C100.403 139.203 100.573 138.947 100.79 138.732C101.007 138.517 101.266 138.347 101.553 138.232C101.84 138.118 102.147 138.06 102.457 138.064C103.094 138.069 103.704 138.31 104.162 138.738C104.621 139.166 104.893 139.748 104.923 140.365Z" fill="#263238"/>
<path d="M115.227 140.365C115.241 140.667 115.192 140.968 115.081 141.251C114.971 141.533 114.802 141.791 114.586 142.008C114.37 142.226 114.11 142.398 113.822 142.514C113.535 142.631 113.226 142.689 112.915 142.686C112.274 142.681 111.66 142.437 111.2 142.005C110.74 141.573 110.468 140.986 110.442 140.365C110.43 140.063 110.48 139.762 110.591 139.48C110.701 139.198 110.87 138.94 111.086 138.723C111.302 138.506 111.562 138.334 111.849 138.217C112.135 138.1 112.444 138.041 112.755 138.043C113.396 138.046 114.011 138.29 114.472 138.722C114.932 139.155 115.203 139.743 115.227 140.365Z" fill="#263238"/>
<path d="M202.021 78.2861C202.988 79.7961 203.795 81.2355 204.624 82.7384C205.453 84.2413 206.202 85.7513 206.937 87.2966C208.435 90.4255 209.675 93.665 210.645 96.9844C210.776 97.4008 210.871 97.8453 210.98 98.2757L211.14 98.9319L211.22 99.2565L211.315 99.7927C211.479 101.009 211.402 102.245 211.089 103.434C210.587 105.279 209.823 107.048 208.82 108.69C207.026 111.674 204.856 114.431 202.363 116.896L199.301 114.653C200.838 111.912 202.205 109.084 203.395 106.185C203.925 104.908 204.299 103.575 204.508 102.213C204.575 101.797 204.555 101.372 204.45 100.964L204.159 100.103C204.042 99.7504 203.933 99.3976 203.795 99.0377C202.689 96.1268 201.409 93.2808 199.963 90.5141C198.508 87.6917 196.945 84.8693 195.381 82.1739L202.021 78.2861Z" fill="#FF8B7B"/>
<path d="M200.079 113.672L196.734 115.386L200.574 119.747C200.574 119.747 202.973 118.174 203.082 115.775L200.079 113.672Z" fill="#FF8B7B"/>
<path d="M192.247 118.075L196.356 121.243L200.574 119.747L196.734 115.387L192.247 118.075Z" fill="#FF8B7B"/>
<path d="M178.197 55.1989C178.117 55.594 177.834 55.8692 177.572 55.8198C177.31 55.7704 177.157 55.4035 177.237 55.0154C177.317 54.6273 177.601 54.3098 177.87 54.3945C178.139 54.4792 178.277 54.8037 178.197 55.1989Z" fill="#263238"/>
<path d="M177.87 55.8762C177.138 56.9814 176.252 57.9834 175.237 58.8539C175.477 59.0947 175.767 59.2825 176.089 59.4043C176.41 59.5261 176.755 59.579 177.099 59.5595L177.87 55.8762Z" fill="#FF5652"/>
<path d="M176.561 69.7202V65.0915L182.873 65.7971C182.873 65.7971 182.771 69.7766 179.237 70.9479L176.561 69.7202Z" fill="#FF8B7B"/>
<path d="M178.379 61.761L182.822 63.0029L182.902 65.8324L176.59 65.0915L178.379 61.761Z" fill="#FF8B7B"/>
<path opacity="0.2" d="M182.822 63.0029L178.379 61.761L177.513 63.3698C177.561 64.6374 177.969 65.8676 178.693 66.9238C179.417 67.98 180.428 68.8209 181.615 69.3533C182.378 68.3186 182.825 67.0955 182.902 65.8253L182.822 63.0029Z" fill="black"/>
<path d="M180.131 53.315C180.178 53.3138 180.223 53.2998 180.262 53.2747C180.301 53.2496 180.332 53.2143 180.351 53.173C180.37 53.1317 180.376 53.086 180.37 53.0412C180.363 52.9964 180.343 52.9544 180.313 52.9199C180.058 52.64 179.737 52.4235 179.378 52.2885C179.018 52.1534 178.631 52.1038 178.248 52.1437C178.185 52.1541 178.13 52.1881 178.093 52.2384C178.056 52.2887 178.041 52.3511 178.052 52.4119C178.062 52.4731 178.097 52.5279 178.149 52.5648C178.2 52.6016 178.265 52.6176 178.328 52.6094C178.631 52.5805 178.938 52.6225 179.221 52.7317C179.504 52.8409 179.757 53.0143 179.957 53.2374C179.979 53.261 180.006 53.28 180.036 53.2933C180.066 53.3067 180.099 53.314 180.131 53.315Z" fill="#263238"/>
<path d="M189.425 62.3395C188.698 65.9734 188.247 71.0043 190.88 73.4245C190.88 73.4245 189.862 77.1077 182.88 77.1077C175.237 77.1077 179.208 73.8761 179.208 73.8761C182.386 72.9164 182.357 69.4096 181.63 66.5872L189.425 62.3395Z" fill="#FF8B7B"/>
<path d="M192.298 75.8518C192.981 74.9204 192.952 71.964 192.225 71.4418C191.054 70.6022 186.029 70.4046 179.273 71.9146C180.001 74.7793 178.437 76.2752 178.437 76.2752L192.298 75.8518Z" fill="#5FBE3C"/>
<path d="M215.031 243.368C214.823 243.439 214.603 243.469 214.383 243.457C214.164 243.445 213.949 243.39 213.751 243.297C213.676 243.229 213.624 243.141 213.603 243.043C213.583 242.946 213.593 242.845 213.634 242.754C213.657 242.678 213.697 242.607 213.751 242.547C213.805 242.488 213.872 242.44 213.947 242.408C214.638 242.084 216.223 242.712 216.296 242.74C216.318 242.748 216.336 242.763 216.349 242.782C216.362 242.801 216.369 242.823 216.369 242.846C216.369 242.868 216.362 242.89 216.351 242.91C216.34 242.93 216.323 242.947 216.303 242.958C215.893 243.133 215.467 243.27 215.031 243.368ZM214.194 242.57C214.146 242.581 214.1 242.598 214.056 242.62C214.011 242.636 213.97 242.662 213.937 242.697C213.904 242.731 213.88 242.772 213.867 242.817C213.802 243.029 213.867 243.1 213.911 243.121C214.187 243.347 215.205 243.121 215.925 242.86C215.377 242.64 214.786 242.541 214.194 242.57Z" fill="#5FBE3C"/>
<path d="M216.274 242.966H216.216C215.634 242.803 214.398 241.949 214.383 241.392C214.383 241.303 214.414 241.217 214.47 241.148C214.527 241.079 214.607 241.03 214.696 241.011C214.782 240.98 214.875 240.967 214.966 240.975C215.058 240.982 215.147 241.009 215.227 241.053C215.911 241.392 216.347 242.761 216.361 242.824C216.372 242.842 216.377 242.861 216.377 242.881C216.377 242.901 216.372 242.92 216.361 242.937C216.35 242.948 216.336 242.957 216.321 242.962C216.306 242.966 216.29 242.968 216.274 242.966ZM214.82 241.209H214.762C214.616 241.258 214.616 241.329 214.616 241.364C214.616 241.695 215.445 242.366 216.071 242.634C215.918 242.239 215.583 241.456 215.14 241.223C215.041 241.179 214.929 241.174 214.827 241.209H214.82Z" fill="#5FBE3C"/>
<path d="M177.259 244.2C176.605 244.2 175.972 244.109 175.761 243.826C175.706 243.751 175.676 243.661 175.676 243.569C175.676 243.477 175.706 243.387 175.761 243.311C175.802 243.242 175.858 243.182 175.924 243.135C175.991 243.088 176.066 243.054 176.146 243.036C176.997 242.81 178.786 243.798 178.859 243.841C178.881 243.851 178.899 243.869 178.91 243.891C178.92 243.912 178.923 243.937 178.917 243.96C178.914 243.985 178.904 244.007 178.887 244.025C178.87 244.043 178.847 244.055 178.823 244.059C178.307 244.151 177.783 244.198 177.259 244.2ZM176.452 243.234C176.375 243.222 176.296 243.222 176.219 243.234C176.17 243.244 176.123 243.263 176.082 243.291C176.041 243.319 176.006 243.355 175.979 243.396C175.892 243.544 175.928 243.615 175.979 243.657C176.219 243.982 177.506 243.989 178.459 243.855C177.837 243.525 177.156 243.314 176.452 243.234Z" fill="#5FBE3C"/>
<path d="M178.815 244.059H178.764C178.146 243.791 176.924 242.719 177.019 242.154C177.019 242.02 177.135 241.858 177.47 241.83C177.589 241.816 177.711 241.827 177.826 241.861C177.941 241.895 178.047 241.951 178.139 242.027C178.605 242.568 178.885 243.237 178.939 243.939C178.939 243.959 178.934 243.979 178.925 243.998C178.916 244.016 178.904 244.032 178.888 244.045C178.865 244.056 178.84 244.061 178.815 244.059ZM177.564 242.048H177.492C177.274 242.048 177.259 242.147 177.259 242.175C177.201 242.514 178.03 243.361 178.662 243.728C178.607 243.161 178.37 242.626 177.986 242.197C177.867 242.098 177.714 242.045 177.557 242.048H177.564Z" fill="#5FBE3C"/>
<path d="M184.429 243.946H179.317L178.808 232.452H183.92L184.429 243.946Z" fill="#FF8B7B"/>
<path d="M221.976 241.646L216.98 242.697L211.954 231.994L216.958 230.942L221.976 241.646Z" fill="#FF8B7B"/>
<path d="M216.492 242.211L222.114 241.032C222.212 241.012 222.314 241.025 222.404 241.068C222.494 241.112 222.566 241.184 222.608 241.272L224.557 245.379C224.609 245.478 224.636 245.588 224.636 245.7C224.635 245.811 224.608 245.921 224.555 246.02C224.503 246.119 224.427 246.205 224.333 246.27C224.24 246.335 224.133 246.378 224.019 246.395C222.056 246.769 221.074 246.861 218.609 247.376C217.089 247.7 213.656 248.512 211.554 248.949C209.453 249.387 208.733 247.432 209.555 247.072C213.227 245.442 214.754 244.01 215.751 242.676C215.931 242.438 216.195 242.273 216.492 242.211Z" fill="#263238"/>
<path d="M179.353 243.368H184.938C185.04 243.368 185.138 243.402 185.217 243.464C185.296 243.525 185.352 243.611 185.375 243.707L186.386 248.117C186.415 248.223 186.419 248.335 186.396 248.443C186.373 248.551 186.324 248.653 186.253 248.739C186.182 248.826 186.092 248.895 185.988 248.941C185.885 248.987 185.772 249.009 185.658 249.006C183.644 248.97 180.735 248.857 178.204 248.857C175.237 248.857 172.685 249.013 169.209 249.013C167.107 249.013 166.525 246.952 167.405 246.762C171.405 245.915 174.677 245.823 178.132 243.756C178.495 243.52 178.917 243.386 179.353 243.368Z" fill="#263238"/>
<path d="M200.028 74.5605C204.82 75.626 208.755 87.5012 208.755 87.5012L199.177 94.6066C196.691 92.0277 194.937 88.8671 194.087 85.4338C192.392 79.2104 195.127 73.4598 200.028 74.5605Z" fill="#5FBE3C"/>
<path opacity="0.4" d="M200.028 74.5605C204.82 75.626 208.755 87.5012 208.755 87.5012L199.177 94.6066C196.691 92.0277 194.937 88.8671 194.087 85.4338C192.392 79.2104 195.127 73.4598 200.028 74.5605Z" fill="black"/>
<path d="M174.816 88.7219C173.623 89.9708 172.43 91.0857 171.179 92.2499C170.561 92.8144 169.936 93.3789 169.296 93.9222L168.329 94.7477L168.089 94.9523L167.674 95.2769C167.248 95.6076 166.775 95.8784 166.271 96.0813C165.709 96.3125 165.106 96.4324 164.496 96.4341C163.975 96.4362 163.458 96.3478 162.969 96.173C162.427 95.9726 161.932 95.6678 161.515 95.2769C160.982 94.7717 160.591 94.1426 160.38 93.4494C160.27 93.1077 160.199 92.7551 160.169 92.3981C160.131 91.9802 160.131 91.5599 160.169 91.1421C160.206 90.8034 160.249 90.5071 160.308 90.2319C160.507 89.2698 160.789 88.3256 161.151 87.4095C161.478 86.5387 161.855 85.6859 162.278 84.8552C162.744 83.9591 163.187 83.3029 163.631 82.555C165.433 79.6911 167.489 76.9854 169.776 74.4688C172.04 71.9671 174.535 69.6714 177.23 67.6104L179.906 70.2846C178.03 72.726 176.183 75.3438 174.474 77.9192C172.773 80.48 171.219 83.1301 169.82 85.8572C169.507 86.5204 169.092 87.2684 168.896 87.8046C168.636 88.4276 168.41 89.0635 168.22 89.7097C168.036 90.2917 167.898 90.886 167.805 91.4879C167.8 91.5819 167.8 91.6761 167.805 91.7701C167.805 91.8265 167.805 91.8548 167.805 91.7066C167.793 91.5482 167.761 91.3918 167.711 91.2409C167.553 90.7407 167.265 90.2885 166.874 89.9285C166.526 89.6184 166.119 89.3786 165.674 89.2229C165.284 89.0794 164.87 89.0053 164.453 89.0041C164.051 88.9994 163.653 89.0739 163.282 89.2229C163.156 89.2727 163.035 89.3316 162.918 89.3993L163.195 89.1523L164.075 88.3762L165.813 86.7956C166.962 85.7443 168.118 84.6224 169.209 83.5781L174.816 88.7219Z" fill="#FF8B7B"/>
<path opacity="0.2" d="M195.919 83.2816C198.523 85.7795 199.374 90.3376 199.555 94.289L199.134 94.6065C196.648 92.0276 194.894 88.8671 194.043 85.4337C193.949 85.0668 193.861 84.7281 193.796 84.3259L195.919 83.2816Z" fill="black"/>
<path d="M169.732 79.4997C168.685 84.8622 168.031 95.8766 171.063 117.68H198.45C198.639 113.608 195.999 93.7245 200.05 74.5252C197.024 73.9613 193.963 73.5866 190.887 73.4033C187.012 73.1877 183.127 73.1877 179.252 73.4033C177.972 73.5162 176.706 73.6997 175.615 73.8902C174.165 74.1371 172.825 74.8057 171.775 75.8073C170.724 76.809 170.012 78.0966 169.732 79.4997Z" fill="#5FBE3C"/>
<path opacity="0.4" d="M169.732 79.4997C168.685 84.8622 168.031 95.8766 171.063 117.68H198.45C198.639 113.608 195.999 93.7245 200.05 74.5252C197.024 73.9613 193.963 73.5866 190.887 73.4033C187.012 73.1877 183.127 73.1877 179.252 73.4033C177.972 73.5162 176.706 73.6997 175.615 73.8902C174.165 74.1371 172.825 74.8057 171.775 75.8073C170.724 76.809 170.012 78.0966 169.732 79.4997Z" fill="black"/>
<path opacity="0.2" d="M173.921 87.4518L168.976 86.3017C168.823 89.2087 168.809 92.8073 169.027 97.2596C171.303 94.7477 174.212 90.8246 173.921 87.4518Z" fill="black"/>
<path opacity="0.2" d="M178.808 232.452L179.07 238.379H184.189L183.928 232.452H178.808Z" fill="black"/>
<path opacity="0.2" d="M216.958 230.942L211.954 231.994L214.543 237.511L219.547 236.46L216.958 230.942Z" fill="black"/>
<path d="M191.854 57.0334C190.545 61.7891 190.022 64.6398 186.996 66.6154C182.451 69.6213 176.779 66.178 176.634 61.1541C176.474 56.6171 178.648 49.5964 183.906 48.6368C185.061 48.4264 186.253 48.5049 187.368 48.865C188.484 49.2251 189.486 49.8548 190.282 50.6949C191.077 51.535 191.638 52.5577 191.914 53.6666C192.189 54.7756 192.168 55.9342 191.854 57.0334Z" fill="#FF8B7B"/>
<path d="M180.379 57.2098C180.131 56.5748 179.004 51.6567 180.066 50.3796C181.128 49.1025 193.236 50.0268 195.025 51.7343C197.999 54.5567 195.934 57.0969 192.683 60.3638C190.24 62.8193 190.145 65.5852 188.909 66.0086C186.727 66.7142 183.397 66.0509 182.728 63.8142C182.059 61.5774 180.379 57.2098 180.379 57.2098Z" fill="#263238"/>
<path d="M193.556 46.139C189.28 44.375 181.259 46.3295 176.924 45.3134C176.869 46.8771 177.399 48.4074 178.416 49.6214C179.434 50.8354 180.87 51.6512 182.459 51.9178C186.054 52.5826 189.707 52.9111 193.367 52.8986C198.123 52.6869 197.192 47.6419 193.556 46.139Z" fill="#263238"/>
<path d="M194.225 51.8826C195.787 52.0317 197.36 51.7401 198.756 51.0429C199.555 52.9198 195.156 53.4349 194.225 51.8826Z" fill="#263238"/>
<path d="M182.706 57.4075C182.608 58.6311 182.096 59.7893 181.251 60.7026C180.131 61.8951 178.968 61.1471 178.772 59.7006C178.597 58.3882 178.961 56.1726 180.328 55.5376C181.695 54.9026 182.8 55.9328 182.706 57.4075Z" fill="#FF8B7B"/>
<path d="M180.771 117.701C180.771 117.701 186.589 155.627 189.767 169.837C193.25 185.396 211.969 236.869 211.969 236.869L221.125 234.943C221.125 234.943 208.035 192.988 205.126 171.234C202.871 154.526 198.443 117.687 198.443 117.687L180.771 117.701Z" fill="#5FBE3C"/>
<path d="M209.773 233.913C209.737 233.913 211.482 237.13 211.482 237.13L221.779 234.964L220.914 231.958L209.773 233.913Z" fill="#263238"/>
<path opacity="0.3" d="M184.444 131.213C191.156 132.49 190.443 156.777 189.636 169.273C187.702 160.439 184.866 143.448 182.931 131.389C183.4 131.165 183.934 131.103 184.444 131.213Z" fill="black"/>
<path d="M171.063 117.701C171.063 117.701 170.336 154.808 170.918 169.915C171.499 185.657 177.165 237.201 177.165 237.201H185.833C185.833 237.201 186.146 186.574 186.56 171.115C186.982 154.265 189.076 117.673 189.076 117.673L171.063 117.701Z" fill="#5FBE3C"/>
<path d="M175.499 233.885C175.455 233.885 175.986 237.37 175.986 237.37H186.524L186.815 234.259L175.499 233.885Z" fill="#263238"/>
<path d="M180.451 81.1509C182.902 87.5648 168.496 95.1218 168.496 95.1218L162.257 87.3602C162.257 87.3602 166.453 79.3023 171.543 75.6755C177.833 71.202 178.583 76.2682 180.451 81.1509Z" fill="#5FBE3C"/>
<path opacity="0.4" d="M180.451 81.1509C182.902 87.5648 168.496 95.1218 168.496 95.1218L162.257 87.3602C162.257 87.3602 166.453 79.3023 171.543 75.6755C177.833 71.202 178.583 76.2682 180.451 81.1509Z" fill="black"/>
<path d="M236.898 32.4575C251.393 32.4575 263.143 25.1916 263.143 16.2288C263.143 7.26586 251.393 0 236.898 0C222.403 0 210.653 7.26586 210.653 16.2288C210.653 25.1916 222.403 32.4575 236.898 32.4575Z" fill="#5FBE3C"/>
<path d="M227.43 24.3996C225.701 24.3942 224.029 23.7978 222.708 22.7151C221.388 21.6324 220.503 20.1327 220.208 18.4796C219.919 16.689 220.335 14.8584 221.374 13.3521C222.413 11.8458 223.999 10.7744 225.815 10.3512C227.306 10.0179 228.867 10.1463 230.278 10.7184C231.689 11.2905 232.88 12.2774 233.684 13.5405L250.533 10.1677C251.181 10.0301 251.858 10.1346 252.43 10.4603C253.001 10.786 253.425 11.3089 253.617 11.9246C253.705 12.2484 253.724 12.5861 253.673 12.9173C253.622 13.2485 253.502 13.5661 253.321 13.8507C253.139 14.1353 252.899 14.381 252.616 14.5728C252.333 14.7645 252.013 14.8982 251.675 14.9658L251.239 15.0504C251.174 15.0617 251.113 15.0873 251.06 15.1252C251.007 15.1632 250.964 15.2124 250.933 15.2692C250.906 15.3268 250.892 15.3894 250.892 15.4526C250.892 15.5159 250.906 15.5784 250.933 15.6361L251.231 16.384C251.331 16.6265 251.341 16.8951 251.259 17.1437C251.176 17.3923 251.007 17.6052 250.781 17.7458C250.602 17.853 250.451 17.9983 250.338 18.1707C250.226 18.3431 250.156 18.538 250.133 18.7407C250.112 18.9733 250.015 19.1934 249.857 19.3696C249.699 19.5457 249.488 19.6689 249.253 19.7215L248.912 19.7921C248.675 19.8345 248.43 19.8027 248.213 19.7012C247.996 19.5997 247.818 19.4339 247.704 19.2276C247.554 18.9815 247.327 18.7872 247.057 18.6718C246.787 18.5565 246.486 18.5258 246.197 18.5841C245.908 18.6423 245.645 18.7866 245.445 18.9968C245.244 19.207 245.117 19.4727 245.079 19.7568C245.059 19.9879 244.964 20.2068 244.807 20.3818C244.65 20.5568 244.44 20.679 244.207 20.7305L243.865 20.8011C243.628 20.8424 243.384 20.8101 243.167 20.7087C242.95 20.6074 242.772 20.4421 242.658 20.2366C242.549 20.0616 242.402 19.9116 242.227 19.7971C242.053 19.6826 241.855 19.6062 241.647 19.5733C241.367 19.5407 241.109 19.4101 240.922 19.2061C240.734 19.0022 240.63 18.7388 240.629 18.4655V17.6612C240.626 17.5982 240.609 17.5367 240.579 17.4807C240.549 17.4247 240.507 17.3756 240.456 17.3367C240.405 17.2978 240.346 17.2701 240.283 17.2555C240.22 17.2409 240.154 17.2396 240.091 17.2519L234.716 18.3244C234.497 19.769 233.825 21.113 232.79 22.1735C231.756 23.2341 230.41 23.9596 228.935 24.2514C228.44 24.3497 227.935 24.3994 227.43 24.3996ZM225.975 10.9933C224.326 11.3671 222.884 12.3334 221.939 13.6976C220.995 15.0618 220.618 16.7226 220.885 18.3456C221.171 19.8555 222.004 21.2162 223.234 22.1816C224.465 23.147 226.01 23.6533 227.592 23.609C229.173 23.5647 230.686 22.9726 231.857 21.9399C233.028 20.9072 233.779 19.5021 233.975 17.9787V17.7247L239.901 16.5604C240.071 16.5205 240.248 16.5178 240.42 16.5526C240.591 16.5874 240.752 16.6587 240.891 16.7614C241.031 16.8641 241.145 16.9956 241.225 17.1463C241.305 17.2971 241.35 17.4633 241.356 17.6329V18.4373C241.357 18.5331 241.393 18.6254 241.457 18.6986C241.52 18.7719 241.608 18.8217 241.705 18.8395C242.023 18.8837 242.326 18.9975 242.592 19.1723C242.858 19.3471 243.079 19.5784 243.239 19.8485C243.278 19.9247 243.34 19.9873 243.417 20.0277C243.494 20.0682 243.582 20.0845 243.668 20.0743L244.003 20.0037C244.088 19.9826 244.163 19.9354 244.218 19.8693C244.273 19.8032 244.305 19.7217 244.308 19.6368C244.354 19.1976 244.543 18.7838 244.847 18.4554C245.151 18.127 245.555 17.9009 246 17.8098C246.445 17.7187 246.909 17.7673 247.324 17.9486C247.739 18.1299 248.083 18.4345 248.308 18.8183C248.345 18.8939 248.406 18.9563 248.482 18.9968C248.557 19.0373 248.644 19.0538 248.73 19.0441L249.079 18.9736C249.162 18.9511 249.236 18.9034 249.29 18.8374C249.343 18.7715 249.374 18.6906 249.377 18.6066C249.413 18.2969 249.522 17.9991 249.694 17.7362C249.867 17.4733 250.099 17.2521 250.373 17.0896C250.453 17.0335 250.512 16.9531 250.54 16.8611C250.567 16.769 250.563 16.6707 250.526 16.5816L250.228 15.8336C250.166 15.6795 250.14 15.5141 250.151 15.349C250.162 15.184 250.21 15.0233 250.292 14.8781C250.374 14.733 250.487 14.6069 250.624 14.5087C250.761 14.4105 250.919 14.3425 251.086 14.3096L251.53 14.2178C251.77 14.1682 251.997 14.072 252.198 13.9352C252.399 13.7983 252.569 13.6235 252.699 13.4213C252.828 13.2191 252.915 12.9935 252.953 12.7582C252.99 12.5229 252.979 12.2826 252.919 12.0516C252.777 11.6076 252.467 11.2321 252.051 11.0004C251.636 10.7688 251.146 10.6982 250.679 10.8027L233.356 14.2954L233.226 14.0767C232.53 12.8746 231.449 11.9249 230.148 11.3711C228.846 10.8174 227.394 10.6897 226.012 11.0074L225.975 10.9933ZM227.43 21.7748C226.526 21.7845 225.64 21.5394 224.877 21.0692C223.975 20.4948 223.307 19.6346 222.986 18.6355C222.664 17.6363 222.71 16.5599 223.115 15.5898C223.52 14.6198 224.26 13.816 225.207 13.3157C226.155 12.8153 227.252 12.6493 228.311 12.8459C229.371 13.0426 230.327 13.5897 231.017 14.394C231.708 15.1983 232.089 16.21 232.097 17.2567C232.104 18.3033 231.737 19.3201 231.059 20.1337C230.38 20.9473 229.432 21.5074 228.375 21.7183C228.066 21.7727 227.751 21.7963 227.437 21.7889L227.43 21.7748ZM227.43 13.4417C227.159 13.4432 226.888 13.4692 226.622 13.5193C226.116 13.624 225.635 13.8245 225.209 14.1093C224.782 14.3942 224.417 14.7578 224.135 15.1794C223.853 15.6011 223.66 16.0724 223.566 16.5667C223.471 17.0609 223.478 17.5683 223.586 18.0598C223.694 18.5514 223.901 19.0175 224.194 19.4316C224.488 19.8457 224.863 20.1996 225.297 20.4731C225.732 20.7467 226.218 20.9345 226.727 21.0259C227.236 21.1173 227.759 21.1104 228.266 21.0057C229.027 20.8521 229.723 20.4834 230.268 19.9462C230.813 19.409 231.182 18.7273 231.328 17.987C231.474 17.2467 231.391 16.481 231.09 15.7864C230.788 15.0918 230.281 14.4993 229.633 14.0838C228.989 13.6683 228.232 13.4496 227.459 13.4558L227.43 13.4417Z" fill="white"/>
<path opacity="0.6" d="M215.54 41.9761C220.303 41.9761 224.164 39.5878 224.164 36.6417C224.164 33.6957 220.303 31.3074 215.54 31.3074C210.776 31.3074 206.915 33.6957 206.915 36.6417C206.915 39.5878 210.776 41.9761 215.54 41.9761Z" fill="#5FBE3C"/>
<path opacity="0.3" d="M201.817 44.1633C203.773 44.1633 205.359 43.184 205.359 41.9759C205.359 40.7679 203.773 39.7886 201.817 39.7886C199.861 39.7886 198.276 40.7679 198.276 41.9759C198.276 43.184 199.861 44.1633 201.817 44.1633Z" fill="#5FBE3C"/>
</svg>
